<?xml version="1.0" encoding="UTF-8"?>
<svg width="29px" height="28px" viewBox="0 0 29 28" version="1.1" xmlns="http://www.w3.org/2000/svg" xmlns:xlink="http://www.w3.org/1999/xlink">
    <title>github</title>
    <g id="Page-1" stroke="none" stroke-width="1" fill="none" fill-rule="evenodd">
        <g id="design-home" transform="translate(-1128.000000, -218.000000)" fill="#3579C8" fill-rule="nonzero">
            <path d="M1155.05492,225.14748 C1153.75829,222.948678 1151.9995,221.207884 1149.77807,219.924704 C1147.55632,218.641459 1145.13082,218 1142.49987,218 C1139.86925,218 1137.44296,218.641655 1135.22166,219.924704 C1133.00004,221.207818 1131.24131,222.948678 1129.94468,225.14748 C1128.64825,227.346216 1128,229.747253 1128,232.350525 C1128,235.477646 1128.92182,238.289633 1130.76592,240.787206 C1132.60982,243.284976 1134.99187,245.013335 1137.91187,245.97248 C1138.25176,246.034918 1138.50338,245.991002 1138.66698,245.841845 C1138.83064,245.692492 1138.91238,245.505441 1138.91238,245.281477 C1138.91238,245.244106 1138.90914,244.907898 1138.90286,244.27246 C1138.89638,243.637022 1138.89333,243.082675 1138.89333,242.60968 L1138.45907,242.684029 C1138.1822,242.734228 1137.83291,242.755499 1137.41122,242.749478 C1136.98972,242.743653 1136.55215,242.699933 1136.09911,242.618646 C1135.64587,242.53808 1135.22431,242.351225 1134.83409,242.058474 C1134.44407,241.765724 1134.16719,241.382524 1134.00353,240.909464 L1133.81473,240.479468 C1133.68889,240.193197 1133.49077,239.875184 1133.22011,239.526606 C1132.94945,239.177701 1132.67575,238.941171 1132.39887,238.816623 L1132.26669,238.722966 C1132.1786,238.660725 1132.09687,238.585656 1132.02129,238.498544 C1131.94577,238.411432 1131.88923,238.324255 1131.85147,238.236947 C1131.81365,238.149574 1131.84499,238.077908 1131.94583,238.021687 C1132.04668,237.965467 1132.22893,237.938175 1132.49337,237.938175 L1132.87083,237.994003 C1133.12258,238.04394 1133.43397,238.193097 1133.80541,238.442389 C1134.17665,238.691486 1134.48183,239.015324 1134.72101,239.413773 C1135.01065,239.924663 1135.35961,240.313949 1135.76887,240.581829 C1136.1778,240.849709 1136.59011,240.98342 1137.00539,240.98342 C1137.42067,240.98342 1137.77935,240.952267 1138.08155,240.890287 C1138.38342,240.82798 1138.66665,240.734324 1138.93109,240.609841 C1139.04437,239.774852 1139.35279,239.133393 1139.85609,238.685006 C1139.13873,238.610395 1138.49379,238.49802 1137.92093,238.348602 C1137.34839,238.198987 1136.75675,237.956174 1136.14639,237.619508 C1135.5357,237.2833 1135.0291,236.865805 1134.62645,236.367743 C1134.22373,235.86942 1133.89323,235.215198 1133.6354,234.405668 C1133.37743,233.59581 1133.24842,232.661601 1133.24842,231.602778 C1133.24842,230.095176 1133.7457,228.812258 1134.74006,227.753305 C1134.27425,226.619871 1134.31823,225.349257 1134.87211,223.941595 C1135.23714,223.829351 1135.77846,223.913583 1136.49581,224.193767 C1137.2133,224.474082 1137.73861,224.714212 1138.07229,224.913306 C1138.40597,225.112334 1138.67333,225.280994 1138.87475,225.417781 C1140.04554,225.094009 1141.25376,224.932089 1142.49974,224.932089 C1143.74571,224.932089 1144.95419,225.094009 1146.12505,225.417781 L1146.84247,224.969526 C1147.33307,224.670427 1147.91241,224.39633 1148.57911,224.147168 C1149.24621,223.898137 1149.75632,223.829547 1150.10891,223.941791 C1150.67509,225.349519 1150.72555,226.620067 1150.25961,227.753501 C1151.25391,228.812455 1151.75139,230.0957 1151.75139,231.602975 C1151.75139,232.661798 1151.62191,233.598952 1151.36434,234.415027 C1151.10644,235.231233 1150.77309,235.8848 1150.36416,236.377102 C1149.95476,236.869339 1149.44492,237.283561 1148.83456,237.619704 C1148.22407,237.956108 1147.63223,238.198922 1147.0597,238.348536 C1146.4869,238.498151 1145.84196,238.610591 1145.1246,238.685333 C1145.77887,239.245702 1146.10607,240.130236 1146.10607,241.338543 L1146.10607,245.280953 C1146.10607,245.504917 1146.18476,245.691903 1146.34228,245.841322 C1146.4996,245.990478 1146.74804,246.034394 1147.08793,245.971891 C1150.00833,245.012877 1152.39038,243.284452 1154.23421,240.786683 C1156.07785,238.289109 1157,235.477122 1157,232.350002 C1156.99934,229.747057 1156.35076,227.346216 1155.05492,225.14748 Z" id="github"></path>
        </g>
    </g>
</svg>