<?xml version="1.0" encoding="UTF-8"?>
<svg width="82px" height="81px" viewBox="0 0 82 81" version="1.1" xmlns="http://www.w3.org/2000/svg" xmlns:xlink="http://www.w3.org/1999/xlink">
    <title>Oval</title>
    <g id="Page-1" stroke="none" stroke-width="1" fill="none" fill-rule="evenodd">
        <g id="Artboard" transform="translate(-420.000000, -117.000000)" fill="#3579C8" fill-rule="nonzero" stroke="#3579C8">
            <path d="M454.020701,185.167893 L454.013871,185.452402 L454.015639,185.781815 L454.024973,186.152051 L454.050908,186.775019 L454.132987,188.213859 L454.2642,190.370514 L454.294998,190.944111 C454.307033,191.18013 454.318173,191.415557 454.328059,191.648973 L454.353597,192.34177 L454.369463,193.013983 C454.38837,194.222302 454.347667,195.283908 454.187722,195.962629 C454.055448,196.523925 453.246766,197.250311 453.039495,197.208449 C434.761899,193.516965 421,177.365615 421,158 C421,135.90861 438.90861,118 461,118 C483.09139,118 501,135.90861 501,158 C501,177.062605 487.77814,192.958622 469.927858,196.973674 L469.321434,197.02809 L469.231743,197.030105 L469.145325,197.024059 L468.735105,196.973674 C467.674527,196.290208 467.569339,195.628284 467.648713,194.86842 L467.680949,194.611341 L467.761058,194.071484 L467.796242,193.78674 C467.801307,193.738378 467.805884,193.689549 467.809841,193.640234 L467.824457,193.383712 L467.83471,192.97212 L467.840395,192.241976 L467.83206,190.300742 L467.798994,186.079771 L467.803747,185.067901 L467.814532,184.652818 L467.81972,184.552803 C467.969813,182.154762 467.798027,180.400552 467.516662,179.060491 L467.419107,178.628828 L467.315181,178.225952 L467.206634,177.849973 L467.095212,177.499 L466.92651,177.015293 L466.761169,176.577216 L466.464156,175.812436 L466.381534,175.583577 L466.310017,175.364602 C466.29912,175.328824 466.288758,175.29338 466.278968,175.258229 L466.227383,175.050534 C466.190599,174.879866 466.169932,174.71457 466.169932,174.549723 C467.039412,174.658284 468.089913,174.493885 469.321434,174.056524 C471.168716,173.400483 476.928284,170.903074 479.832143,168.230678 C482.736002,165.558282 484.498379,160.124048 484.498379,156.841385 C484.498379,153.558723 484.045235,149.778622 480.548549,146.103277 C479.707062,145.014083 479.320659,144.665787 479.159488,144.226451 L479.331869,143.102272 L479.707062,141.619682 L479.832143,141.107967 C480.318003,139.053021 480.342683,137.893031 479.16279,135.001474 C477.754049,135.001474 476.467912,135.93248 475.320723,136.961251 L474.869296,137.375998 L474.011835,138.189376 C473.047312,139.098129 472.209521,139.801709 471.51175,139.62266 L469.014117,138.985212 L468.128249,138.763909 L467.29932,138.56185 L466.151401,138.294843 L465.442249,138.140894 L464.771979,138.006188 L464.135434,137.890725 C462.06409,137.537924 460.468833,137.505851 458.489858,137.794507 L457.883794,137.890725 L457.249548,138.006188 L456.581962,138.140894 L455.875876,138.294843 L454.733275,138.56185 L453.90837,138.763909 L452.083735,139.225758 L450.541974,139.62266 C450.304792,139.683834 449.869219,139.460953 449.318387,139.079424 L449.007002,138.856337 L448.675754,138.606306 L448.148197,138.19063 L446.091182,136.512384 L445.632579,136.14915 C444.648641,135.381488 443.73993,134.757919 443.143566,134.636142 L443.081555,134.818445 L443.009288,135.006923 L442.655819,135.853041 L442.560887,136.095236 L442.467144,136.352743 L442.376497,136.627084 C442.332266,136.768717 442.289911,136.917234 442.250505,137.073491 L442.175943,137.39658 C441.884302,138.787903 441.847136,140.756417 442.685315,143.79781 C442.685315,144.155213 442.618452,144.476252 442.499145,144.784718 L442.400057,145.014083 C442.327743,145.165916 442.243219,145.316094 442.148287,145.46759 L441.99831,145.696194 L441.834074,145.929005 L441.468229,146.416173 L440.954793,147.088533 L440.624906,147.539145 L440.398704,147.863866 L440.169056,148.210638 C440.092083,148.330152 440.014761,148.453713 439.937315,148.581693 L439.704832,148.97926 C438.891422,150.419748 438.089225,152.3884 437.559049,155.315571 C437.559049,161.426536 440.064863,165.76216 443.798062,168.776565 C447.091859,171.43617 449.239237,172.554303 454.187722,173.893682 C454.210177,174.038523 454.23001,174.18325 454.247143,174.32766 L454.290364,174.759728 C454.570057,178.205343 453.249045,181.349211 449.239237,181.349211 C448.153248,181.349211 446.938361,180.965379 445.735645,180.405105 L445.255542,180.172077 C445.095947,180.091591 444.936903,180.008461 444.778743,179.923177 L444.307256,179.661356 L443.843085,179.389563 L443.388237,179.110748 C443.313317,179.063858 443.23887,179.016797 443.164936,178.969629 L442.727835,178.68581 L442.305073,178.402343 L441.898656,178.122177 L441.510591,177.848261 L440.633882,177.210175 L439.574045,176.423868 L439.307478,176.235898 L439.17486,176.150966 C439.023198,176.060898 438.973975,176.066152 439.048591,176.198191 L439.301893,176.630079 L439.561892,177.054985 L439.895047,177.580335 L440.154617,177.976719 L440.441939,178.403269 L440.755108,178.854193 L441.092219,179.323702 L441.451366,179.806004 C442.991077,181.834209 445.055058,184.044788 447.023228,184.552803 C448.557606,184.94885 450.080451,185.009423 451.325016,184.947646 L451.778163,184.91916 L452.202094,184.881702 C452.270141,184.87485 452.336841,184.867728 452.402128,184.860389 L452.776376,184.814154 L453.113595,184.765191 L453.543155,184.692093 L453.774123,184.647235 L454.050908,184.595947 C454.039693,184.774481 454.029624,184.96513 454.020701,185.167893 Z M461,121 C440.565464,121 424,137.565464 424,158 C424,174.80508 435.289512,189.290883 451.100369,193.662721 L451.372,193.735 L451.372095,193.31686 L451.362579,192.744484 L451.343551,192.112751 L451.299313,191.104957 L451.112,187.957 L450.848357,187.965799 C449.478279,187.991897 448.110187,187.8749 446.773278,187.577608 L446.273456,187.457599 C443.858256,186.834199 441.606193,185.037347 439.402873,182.254917 C438.587582,181.225339 437.1755,179.551288 436.922871,178.854193 L435.888383,177.316322 C435.723434,177.024432 434.329358,175.549035 433.879451,175.050534 C432.586806,174.549723 432.269904,174.32766 431.67182,174.056524 C431.073736,173.785388 430.223781,172.018569 432.130491,171.425371 C432.527788,171.260151 433.548148,171.3538 434.257037,171.386293 C435.129981,171.426307 437.852927,172.254426 438.21429,172.391132 C439.312645,172.806646 439.629366,173.081623 440.231392,173.331249 C440.412699,173.406427 440.563183,173.485807 440.716486,173.577363 L440.890096,173.68535 L441.075588,173.809899 L441.41953,174.056524 L443.183457,175.358343 L443.560953,175.627207 L443.914988,175.8714 L444.427933,176.213337 C445.454296,176.888507 446.400746,177.425052 447.252702,177.798943 C448.096335,178.169181 448.784013,178.349211 449.239237,178.349211 C450.486368,178.349211 451.187124,177.713571 451.323453,176.329175 L451.334,176.191 L451.133718,176.129454 C447.487889,174.979196 445.214193,173.732391 442.257665,171.386293 L441.91338,171.110654 C437.172863,167.282881 434.559049,161.963502 434.559049,155.315571 C434.559049,151.842641 436.330217,148.810473 437.218148,147.285267 C437.283886,147.172347 437.358369,147.05082 437.439222,146.923098 L437.698987,146.524019 L437.984587,146.103277 L438.433315,145.464907 L438.867875,144.863573 L439.602,143.866 L439.571254,143.741647 C438.68922,140.124535 438.83293,137.528287 439.724053,135.117002 L439.850803,134.788742 L440.264473,133.784146 L440.280511,133.740087 C440.620413,132.654039 441.317359,131.549184 442.376497,131.348601 C442.749445,131.277971 442.995624,131.431208 443.388237,131.511379 C444.132867,131.663432 446.278221,132.579844 447.745635,133.571036 C448.72391,134.231831 449.656023,134.962732 450.541974,135.763737 L451.100369,136.27956 L453.000077,135.901976 L454.352658,135.571687 L455.247216,135.362513 L456.052745,135.183984 L456.781596,135.033948 L457.230996,134.94869 L457.655465,134.874502 L458.058662,134.810746 L458.444248,134.756784 L458.81588,134.711979 L459.177219,134.675692 L459.707932,134.63584 L460.021478,134.619668 C460.230782,134.610623 460.44121,134.604948 460.656223,134.602041 L461.155373,134.599976 L461.661722,134.607694 L462.158071,134.627018 L462.654568,134.659701 L462.990658,134.689778 L463.509948,134.748625 L463.870629,134.797767 L464.440899,134.887647 L465.055285,134.998485 L465.494396,135.084886 L465.96063,135.1819 L466.986496,135.409848 L468.474951,135.763737 L469.495995,136.015964 L471.092356,136.27956 L473.700217,133.868058 C476.249921,132.172824 476.980651,131.348601 479.331869,131.348601 C480.551018,131.348601 481.653374,132.939282 482.113975,134.068074 C483.031357,136.316297 483.216963,137.683101 483.1352,139.361186 C483.097174,140.141605 482.97128,140.878413 482.736002,141.864106 L482.301,143.599 L482.346281,143.70795 C482.392106,143.816008 482.694683,144.254815 483.1352,144.784718 C483.278582,144.957195 483.687578,145.22091 484.045235,145.696194 C487.297156,150.017619 487.542255,154.683071 487.542255,157.3675 C487.542255,159.261519 486.399993,163.05514 485.046158,165.379916 C483.70358,167.685361 483.412505,168.977485 480.548549,171.110654 C477.684593,173.243823 473.19642,175.57215 470.429519,176.459002 L469.958,176.605 L469.970689,176.640151 C470.67203,178.796036 470.990472,181.151396 470.841311,184.245454 L470.807438,184.882051 L470.798889,185.490299 L470.806939,187.45964 L470.840077,191.660947 L470.83626,192.8839 L470.826229,193.382636 L470.814,193.663 L471.253358,193.542595 C486.772059,189.137455 497.768987,175.014466 497.996406,158.521606 L498,158 C498,137.565464 481.434536,121 461,121 Z" id="Oval"></path>
        </g>
    </g>
</svg>