<?xml version="1.0" encoding="UTF-8"?>
<svg width="443px" height="382px" viewBox="0 0 443 382" version="1.1" xmlns="http://www.w3.org/2000/svg" xmlns:xlink="http://www.w3.org/1999/xlink">
    <title>Group 2</title>
    <g id="Page-1" stroke="none" stroke-width="1" fill="none" fill-rule="evenodd" stroke-linecap="square">
        <g id="Group-2" transform="translate(1.000000, 1.000000)" stroke="#4D4C4C" stroke-width="2">
            <polyline id="Line-6" points="176 165 176 196 258 196 258 142 306 142 306 250 127 250 127 116 340 116 340 278 96 278 96 87 193 87 193 33 34 33 34 352 410 352 410 40 292 40"></polyline>
            <polyline id="Line-8" points="282 164 282 223 152 223 152 140 198 140 198 172 225 172 225 0 -3.32685268e-14 0 0 380 441 380 441 0 262 0 262 83 378 83 378 314 64 314 64 58 161 58"></polyline>
        </g>
    </g>
</svg>