<?xml version="1.0" encoding="UTF-8"?>
<svg width="25px" height="24px" viewBox="0 0 25 24" version="1.1" xmlns="http://www.w3.org/2000/svg" xmlns:xlink="http://www.w3.org/1999/xlink">
    <title>linkedin</title>
    <g id="Page-1" stroke="none" stroke-width="1" fill="none" fill-rule="evenodd">
        <g id="Artboard" transform="translate(-367.000000, -237.000000)" fill="#3579C8" fill-rule="nonzero">
            <g id="linkedin" transform="translate(367.000000, 237.000000)">
                <path d="M23.021,0 L2.021,0 C1.194,0 0.521,0.673 0.521,1.5 L0.521,22.5 C0.521,23.327 1.194,24 2.021,24 L23.021,24 C23.849,24 24.521,23.327 24.521,22.5 L24.521,1.5 C24.521,0.673 23.849,0 23.021,0 Z M23.521,22.5 C23.521,22.775 23.296,23 23.021,23 L2.021,23 C1.74485763,23 1.521,22.7761424 1.521,22.5 L1.521,1.5 C1.521,1.22385763 1.74485763,1 2.021,1 L23.021,1 C23.2971424,1 23.521,1.22385763 23.521,1.5 L23.521,22.5 Z" id="Shape"></path>
                <path d="M7.121,9 L3.921,9 C3.7000861,9 3.521,9.22385763 3.521,9.5 L3.521,20.5 C3.521,20.7761424 3.7000861,21 3.921,21 L7.121,21 C7.3419139,21 7.521,20.7761424 7.521,20.5 L7.521,9.5 C7.521,9.22385763 7.3419139,9 7.121,9 Z M6.521,20 L4.521,20 L4.521,10 L6.521,10 L6.521,20 Z" id="Shape"></path>
                <path d="M5.5,3 C4.2598,3 3.25,4.0098 3.25,5.25 C3.25,6.4902 4.2598,7.5 5.5,7.5 C6.7402,7.5 7.75,6.4902 7.75,5.25 C7.75,4.0098 6.7411,3 5.5,3 Z M5.5,6.5 C4.81083333,6.5 4.25,5.93916667 4.25,5.25 C4.25,4.56083333 4.81083333,4 5.5,4 C6.18916667,4 6.75,4.56083333 6.75,5.25 C6.75,5.93916667 6.19,6.5 5.5,6.5 Z" id="Shape"></path>
                <path d="M17.021,8.999 C15.378,8.999 14.222,9.361 13.521,9.68 L13.521,9.5 C13.521,9.22385763 13.2971424,9 13.021,9 L10.021,9 C9.74485763,9 9.521,9.22385763 9.521,9.5 L9.521,20.5 C9.521,20.7761424 9.74485763,21 10.021,21 L13.021,21 C13.2971424,21 13.521,20.7761424 13.521,20.5 L13.521,14.5 C13.5504769,13.6928769 14.2133388,13.0537814 15.021,13.0537814 C15.8286612,13.0537814 16.4915231,13.6928769 16.521,14.5 L16.521,20.5 C16.521,20.7761424 16.7448576,21 17.021,21 L20.360975,21 C20.6371173,21 20.8380867,20.7761424 20.8380867,20.5 L20.8380867,13.5 C20.8380867,12.3221564 20.3529394,11.2176906 19.7715885,10.541 C19.1902376,9.86430943 18.3017038,8.999 17.021,8.999 Z M19.7715885,20 L17.521,20 L17.521,14.5 C17.521,13.121 16.4,12 15.021,12 C13.642,12 12.521,13.121 12.521,14.5 L12.521,20 L10.521,20 L10.521,10 L12.521,10 L12.521,10.541 C12.521,10.733 12.632,10.907 12.805,10.99 C12.978,11.073 13.184,11.049 13.335,10.93 C13.347,10.921 14.5340007,9.99709192 17.021,9.99899411 C18.3244053,10 19.7715885,11.7308508 19.7715885,13.5 L19.7715885,20 Z" id="Shape"></path>
            </g>
        </g>
    </g>
</svg>