<?xml version="1.0" encoding="UTF-8"?>
<svg width="31px" height="25px" viewBox="0 0 31 25" version="1.1" xmlns="http://www.w3.org/2000/svg" xmlns:xlink="http://www.w3.org/1999/xlink">
    <title>twitter</title>
    <g id="Page-1" stroke="none" stroke-width="1" fill="none" fill-rule="evenodd">
        <g id="design-home" transform="translate(-1181.000000, -220.000000)" fill="#3579C8" fill-rule="nonzero">
            <path d="M1202.63721,220 C1199.0445,220.054333 1196.21385,223.152159 1196.21385,226.739103 L1196.21385,227.608672 C1189.79049,226.467377 1186.63326,224.728238 1183.14938,221.086962 C1181.08086,225.10869 1183.36712,228.478241 1185.87113,230.326107 C1184.18361,230.326107 1182.76832,230.108714 1181.67961,229.130479 C1181.57077,229.076146 1181.46187,229.130479 1181.51629,229.239205 C1182.44168,232.608757 1185.59891,235.054406 1188.04849,235.760916 C1185.81665,235.760916 1184.34687,236.086974 1182.76826,235.108739 C1182.65942,235.054406 1182.55052,235.108739 1182.60494,235.217404 C1183.80249,238.532623 1186.19765,239.565252 1189.68152,239.565252 C1187.93959,240.869606 1185.59891,242.17396 1181.18964,242.282626 C1181.02632,242.282626 1180.91748,242.500018 1181.0808,242.608684 C1182.71384,243.967371 1186.7421,245 1192.40333,245 C1201.71176,245 1209.27825,236.739151 1209.27825,226.52171 L1209.27825,225.97826 C1210.74803,225.434809 1211.56452,224.130455 1212,222.826101 C1212,222.771768 1211.94558,222.717435 1211.8911,222.717435 L1208.78829,223.804396 C1208.73387,223.804396 1208.67945,223.695731 1208.73387,223.641337 C1210.04044,222.608708 1211.02025,221.304354 1211.45574,220.054333 C1211.45574,220.054333 1211.40132,220 1211.34683,220 C1209.87706,220.597844 1208.46177,221.195628 1207.37306,221.521746 C1207.20973,221.576079 1206.99199,221.576079 1206.82873,221.467414 C1206.12108,221.086962 1203.99808,220 1202.63721,220" id="twitter"></path>
        </g>
    </g>
</svg>