<?xml version="1.0" encoding="UTF-8"?>
<svg width="103px" height="88px" viewBox="0 0 103 88" version="1.1" xmlns="http://www.w3.org/2000/svg" xmlns:xlink="http://www.w3.org/1999/xlink">
    <title>twitter</title>
    <g id="Page-1" stroke="none" stroke-width="1" fill="none" fill-rule="evenodd">
        <g id="Artboard" transform="translate(-287.000000, -119.000000)" fill="#3579C8" fill-rule="nonzero" stroke="#3579C8" stroke-width="2">
            <path d="M346.736757,130.008816 C355.155404,126.475485 360.816813,128.229794 367.363623,133.568854 L367.624638,133.863152 C370.287215,133.151442 372.238448,132.544182 373.478335,132.041372 C374.683094,131.552808 376.921073,130.335327 378.189262,129.606297 C379.644242,129.281316 379.644242,130.264829 379.457451,130.752231 C379.27066,131.239633 378.820445,132.710109 378.189262,133.863152 C377.669465,134.812717 376.756933,136.030047 375.451666,137.515142 L374.868222,138.168005 L374.558466,138.506732 C377.867927,137.596215 379.96614,136.945807 380.853102,136.55551 C381.541215,136.252713 382.107483,136.774603 382.07686,137.151764 C382.001063,138.085293 379.809146,140.954394 377.416969,143.46339 C375.024793,145.972385 373.220001,146.976503 373.087391,147.08925 C373.478335,157.889302 370.883382,168.437562 363.991784,178.360469 C353.654386,193.244831 342.687269,198.747601 324.653695,200.628721 C318.228037,201.298994 310.33441,200.063012 303.405813,197.612002 C299.773147,196.326937 297.262915,194.499353 293.497026,192.391759 C292.766417,191.982872 293.047427,191.296068 293.233058,191.169771 C293.356812,191.085572 293.737565,191.084885 294.375317,191.167707 L295.536492,191.169771 C295.726694,191.169278 295.915232,191.168368 296.102106,191.16704 L297.203383,191.154054 L298.264729,191.131036 L299.286143,191.097985 C299.453051,191.09164 299.618295,191.084878 299.781876,191.077697 L300.743392,191.029597 L301.664977,190.971465 L302.54663,190.9033 C303.83916,190.793528 304.996921,190.649896 306.019912,190.472405 L306.681941,190.349061 C307.109982,190.263487 307.511403,190.171225 307.886202,190.072275 C311.259396,189.181722 314.606084,187.465179 317.926264,184.922646 C316.388232,184.922646 310.882172,183.532503 308.396728,180.823977 C306.042096,178.258005 303.866932,175.556426 302.774738,172.2581 C302.474181,171.435013 302.474181,171.02347 302.774738,171.02347 C303.075295,171.02347 304.779116,171.100261 307.886202,171.253845 C305.400758,170.402294 303.186524,169.173817 300.334,165.364966 C297.570617,161.675142 296.465616,157.940601 296.565732,154.133043 C296.720185,153.39996 297.011984,153.033418 297.44113,153.033418 C297.870275,153.033418 299.435639,153.577669 302.13722,154.66617 C299.286143,151.451139 297.872761,149.332424 296.849814,144.799427 C295.826868,140.266431 297.160666,135.479811 299.87925,131.199196 L300.89869,132.234637 C301.909767,133.252321 302.895753,134.216731 303.856648,135.127868 L304.809179,136.021247 L305.744983,136.879111 C309.763889,140.51957 313.311639,143.159675 316.388232,144.799427 C320.884793,147.195988 326.889303,149.138761 335.831214,150.079601 C334.344153,140.093939 338.180099,133.600071 346.736757,130.008816 Z M347.661942,131.554221 C339.561787,135.154695 337.5,140.514751 337.549734,149.644687 C337.844123,150.969021 337.844123,151.71051 337.549734,151.869155 C337.255346,152.027799 336.682506,152.027799 335.831214,151.869155 C326.762617,151.170659 320.176409,149.084767 315.447546,146.564395 C311.359926,144.385789 306.567288,140.594947 301.032978,135.185254 L300.334,134.497 L300.275762,134.621372 C298.86411,137.651901 298.327068,141.749934 298.891162,144.565387 C299.455256,147.38084 300.743392,150.374192 303.405813,153.288831 L303.661733,153.468394 C305.29952,154.69003 306.22828,155.466702 306.448015,155.798411 C306.777616,156.295974 306.448015,156.822119 306.019912,157.089923 C305.820394,157.214734 304.484368,157.245486 302.13722,156.726001 C301.463662,156.576926 300.275255,156.217592 298.572,155.648 L298.576813,155.798411 C298.672157,158.080066 299.236669,160.447268 301.664977,164.011327 C304.093284,167.575386 306.019912,168.336463 308.077732,169.577161 L308.59169,169.754502 C309.954891,170.216931 311.22726,170.63992 312.408798,171.02347 C312.860794,171.170196 313.311224,172.42827 311.800654,172.717036 C310.793606,172.909546 308.665389,173.088201 305.416,173.253 L305.427076,173.27938 C306.325994,175.297459 307.510979,177.146761 308.985212,178.833009 L309.824804,179.487576 C312.246488,181.461357 315.637733,183.240638 319.142242,183.459271 C320.081442,183.470027 320.754769,183.550469 321.162221,183.700598 C321.391742,183.785167 321.618596,184.338928 321.162221,184.922646 C320.926358,185.224322 320.253031,185.753619 319.142242,186.510537 C315.620888,189.207125 312.038509,191.044556 308.396728,192.006018 C307.003222,192.373916 303.625889,192.700137 298.264729,192.984682 L301.220743,194.508238 C309.654401,198.391139 316.91711,199.088858 324.653695,198.747601 C342.94226,197.076789 353.042398,190.619906 362.349098,177.219601 C368.849184,167.860414 372.051099,156.261163 371.048045,146.262478 C373.026673,144.801047 374.431328,143.678659 375.262013,142.895315 C375.969541,142.228109 376.94529,141.13529 378.189262,139.616859 C375.319338,140.588902 372.71883,141.139627 370.387738,141.269036 C369.437581,140.705095 369.984342,139.890001 370.129842,139.735 C370.533844,139.304617 371.519694,138.443538 373.087391,137.151764 L373.62923,136.55551 C373.716034,136.458615 373.801083,136.362967 373.884376,136.268577 L374.363014,135.717396 C374.439264,135.628073 374.513749,135.540026 374.586467,135.453266 L375.001539,134.948226 C375.657885,134.132487 376.136808,133.447387 376.434912,132.90281 C376.504511,132.775667 376.573375,132.639343 376.64143,132.493893 L376.712,132.336 C375.241156,133.156176 373.896119,133.813492 372.676886,134.307946 C370.848038,135.049627 369.199147,135.453266 367.022794,135.717396 C361.952767,131.199196 355.762097,127.953747 347.661942,131.554221 Z" id="twitter"></path>
        </g>
    </g>
</svg>